<svg xmlns="http://www.w3.org/2000/svg" width="22.387" height="31.944" viewBox="0 0 22.387 31.944"><g transform="translate(-790.516 -607.576)"><path d="M797.817,619.07a4.279,4.279,0,1,0-4.277-4.279A4.283,4.283,0,0,0,797.817,619.07Zm-2.54-4.279a2.54,2.54,0,1,1,2.54,2.542A2.543,2.543,0,0,1,795.277,614.791Z" transform="translate(3.997 3.88)" fill="#d90018"/><path d="M801.713,639.52l8.957-12.941c3.352-4.467,2.867-11.815-1.04-15.725a11.2,11.2,0,0,0-15.834,0c-3.91,3.91-4.4,11.249-1.061,15.7Zm-6.686-27.433v0a9.456,9.456,0,0,1,13.375,0c3.339,3.336,3.743,9.63.859,13.477l-7.548,10.9-7.566-10.926C791.275,621.708,791.686,615.423,795.027,612.087Z" transform="translate(0 0)" fill="#d90018"/></g></svg>